<svg width="238" height="165" viewBox="0 0 238 165" fill="none" xmlns="http://www.w3.org/2000/svg">
<mask id="mask0" mask-type="alpha" maskUnits="userSpaceOnUse" x="0" y="0" width="238" height="165">
<rect width="238" height="165" rx="16" fill="#212121"/>
</mask>
<g mask="url(#mask0)">
<path d="M118.017 160.498C117.454 159.007 115.787 158.256 114.297 158.819C112.806 159.383 112.055 161.048 112.618 162.54C113.701 165.403 113.332 168.628 111.631 171.168C109.77 173.947 106.663 175.511 103.312 175.358C102.297 175.305 101.343 175.795 100.78 176.634C100.218 177.474 100.136 178.546 100.563 179.462C101.982 182.498 101.716 185.97 99.8549 188.749C98.4473 190.851 96.3056 192.278 93.8245 192.769C91.3434 193.26 88.8195 192.755 86.7182 191.347C82.3805 188.442 81.215 182.548 84.1209 178.21C84.3618 177.85 84.6346 177.499 84.9316 177.166C85.4873 176.543 85.7462 175.71 85.6416 174.882C85.5369 174.054 85.0782 173.311 84.3845 172.847L61.1841 157.306C63.9095 154.364 66.3133 151.151 68.3561 147.722L91.0371 162.914C91.5169 163.235 92.0768 163.402 92.6432 163.402C92.8952 163.402 93.1492 163.369 93.397 163.302C94.2027 163.084 94.8746 162.528 95.239 161.777C95.4348 161.374 95.6561 160.988 95.897 160.629C98.0906 157.354 102.138 155.77 105.97 156.686C107.52 157.058 109.078 156.102 109.449 154.552C109.82 153.002 108.864 151.444 107.314 151.073C101.528 149.689 95.4348 151.847 91.789 156.471L71.0677 142.592C74.5154 135.192 76.3963 127.031 76.3963 118.627C76.3963 112.677 75.4836 106.865 73.7316 101.349L91.7882 89.2547C96.66 95.4521 105.589 96.9473 112.245 92.4899C119.228 87.8132 121.103 78.3278 116.427 71.3458C114.182 67.9955 110.813 65.7402 107 64.9245C107.697 61.0885 106.895 57.1141 104.65 53.7641C102.385 50.3818 98.9379 48.0842 94.9442 47.2943C90.9509 46.5043 86.8887 47.3173 83.506 49.583C80.1237 51.8486 77.8258 55.2955 77.0362 59.2893C76.3228 62.8982 76.9177 66.5637 78.7112 69.7324L62.0618 80.884C61.3576 80.0925 60.6319 79.316 59.88 78.5587C49.2348 67.8404 35.0566 61.8766 19.9567 61.7665C19.8143 61.7658 19.6727 61.765 19.5307 61.765C11.3582 61.765 3.45582 63.4838 -3.9629 66.8758C-5.41239 67.5387 -6.04999 69.2507 -5.387 70.7002C-4.7244 72.1497 -3.01247 72.7876 -1.56258 72.1246C5.09771 69.079 12.1917 67.5364 19.5319 67.5364C19.6589 67.5364 19.787 67.5372 19.9144 67.538C33.4809 67.6369 46.2197 72.995 55.7847 82.6255C65.354 92.2606 70.6241 105.046 70.6241 118.627C70.6241 136.893 60.7677 153.89 44.9006 162.985C44.0033 163.499 43.4499 164.454 43.4499 165.489V178.666C43.4499 181.741 40.9488 184.242 37.8744 184.242H35.6595V175.695C35.6595 174.102 34.3678 172.81 32.7736 172.81C31.1794 172.81 29.8877 174.102 29.8877 175.695V184.242H22.4193V175.695C22.4193 174.102 21.1276 172.81 19.5334 172.81C17.9392 172.81 16.6475 174.102 16.6475 175.695V184.242H9.17916V175.695C9.17916 174.102 7.88743 172.81 6.29325 172.81C4.69907 172.81 3.40734 174.102 3.40734 175.695V184.242H1.1925C-1.88196 184.242 -4.38309 181.741 -4.38309 178.666V165.489C-4.38309 164.454 -4.93679 163.499 -5.83412 162.985C-21.7009 153.89 -31.5576 136.893 -31.5576 118.627C-31.5576 102.568 -23.793 87.2214 -10.7875 77.5759C-9.50731 76.6267 -9.2395 74.8189 -10.1884 73.5387C-11.138 72.2586 -12.9454 71.9907 -14.2256 72.94C-17.1273 75.0921 -19.79 77.5032 -22.1999 80.1217L-37.7115 69.7324C-35.918 66.5637 -35.3231 62.8986 -36.0365 59.2893C-36.8261 55.2955 -39.1237 51.8486 -42.506 49.583C-45.8883 47.3177 -49.9512 46.5054 -53.9442 47.2943C-57.9375 48.0838 -61.3845 50.3814 -63.6501 53.7637C-65.8942 57.1141 -66.6968 61.0885 -66 64.9241C-69.8125 65.7399 -73.1821 67.9951 -75.4261 71.3455C-80.1025 78.3274 -78.227 87.8129 -71.245 92.4896C-64.589 96.9473 -55.6588 95.4517 -50.7878 89.2543L-34.2515 100.33C-36.2597 106.171 -37.329 112.349 -37.329 118.627C-37.329 127.405 -35.2797 135.917 -31.5337 143.574L-50.7882 156.47C-55.6596 150.273 -64.589 148.778 -71.2454 153.235C-78.2278 157.912 -80.1032 167.397 -75.4265 174.379C-73.1824 177.73 -69.8132 179.985 -66.0004 180.8C-66.6968 184.636 -65.8946 188.611 -63.6505 191.961C-61.3848 195.343 -57.9379 197.641 -53.9442 198.431C-52.9484 198.628 -51.9487 198.725 -50.9559 198.725C-47.9673 198.725 -45.0452 197.843 -42.506 196.142C-35.8503 191.684 -33.8348 182.856 -37.7115 175.993L-17.043 162.149C-14.8886 163.965 -12.5918 165.636 -10.1549 167.131V178.666C-10.1549 184.923 -5.06454 190.013 1.1925 190.013H37.8744C44.1314 190.013 49.2218 184.923 49.2218 178.666V167.131C51.9807 165.438 54.5626 163.523 56.9572 161.422L78.7112 175.994C74.8344 182.857 76.8499 191.685 83.5056 196.142C86.0448 197.843 88.9665 198.725 91.9556 198.725C92.9479 198.725 93.9484 198.628 94.9438 198.431C98.9375 197.641 102.384 195.343 104.65 191.961C106.894 188.611 107.697 184.636 107 180.801C110.812 179.985 114.182 177.73 116.426 174.379C119.164 170.293 119.758 165.104 118.017 160.498ZM-50.0367 82.8106C-50.7301 82.3458 -51.5916 82.2049 -52.3966 82.4227C-53.2023 82.6409 -53.8742 83.1969 -54.2386 83.9477C-54.4344 84.3505 -54.6557 84.7369 -54.8965 85.0962C-57.8021 89.434 -63.6947 90.5995 -68.0332 87.694C-72.3709 84.7884 -73.5365 78.8954 -70.6309 74.5573C-68.7693 71.778 -65.661 70.213 -62.3118 70.3673C-61.2971 70.4193 -60.3424 69.9302 -59.7799 69.0906C-59.2177 68.251 -59.1354 67.1786 -59.5629 66.2632C-60.9812 63.2268 -60.7161 59.7549 -58.8545 56.9755C-57.4469 54.8742 -55.3052 53.4466 -52.8241 52.956C-50.3433 52.465 -47.8191 52.9703 -45.7178 54.3778C-43.6165 55.7854 -42.1889 57.9267 -41.6983 60.4078C-41.2077 62.889 -41.7125 65.4128 -43.1205 67.5149C-43.3614 67.8747 -43.6342 68.2256 -43.9312 68.5588C-44.4869 69.1818 -44.7458 70.0149 -44.6412 70.8433C-44.5365 71.6714 -44.0778 72.414 -43.3841 72.8784L-25.9112 84.5814C-28.3138 87.7898 -30.3698 91.2375 -32.049 94.8583L-50.0367 82.8106ZM-43.3844 172.846C-44.0782 173.311 -44.5365 174.054 -44.6415 174.882C-44.7462 175.71 -44.4876 176.543 -43.9316 177.166C-43.6346 177.499 -43.3617 177.85 -43.1205 178.21C-41.7129 180.312 -41.2077 182.835 -41.6987 185.316C-42.1893 187.797 -43.6169 189.939 -45.7182 191.346C-47.8195 192.754 -50.3449 193.259 -52.8245 192.768C-55.3056 192.277 -57.4473 190.85 -58.8549 188.749C-60.7165 185.969 -60.9812 182.497 -59.5633 179.461C-59.1358 178.546 -59.2181 177.473 -59.7803 176.634C-60.3424 175.794 -61.311 175.303 -62.3122 175.357C-65.6606 175.51 -68.7697 173.946 -70.6313 171.167C-73.5368 166.829 -72.3713 160.936 -68.0336 158.03C-63.6959 155.125 -57.8028 156.29 -54.8965 160.628C-54.656 160.988 -54.4348 161.374 -54.2389 161.776C-53.8745 162.527 -53.2027 163.083 -52.397 163.301C-51.5924 163.519 -50.7308 163.378 -50.0371 162.914L-28.7267 148.64C-26.6181 152.031 -24.1577 155.207 -21.3723 158.102L-43.3844 172.846ZM84.3849 72.8784C85.0786 72.414 85.5369 71.6714 85.642 70.8433C85.747 70.0149 85.4881 69.1818 84.932 68.5588C84.635 68.2256 84.3618 67.8747 84.1209 67.5145C82.7133 65.4132 82.2081 62.8893 82.6991 60.4082C83.1897 57.9271 84.6173 55.7854 86.7186 54.3782C88.8199 52.9707 91.3449 52.4654 93.8249 52.9564C96.306 53.447 98.4477 54.8746 99.8553 56.9759C101.717 59.7552 101.982 63.2272 100.564 66.2636C100.136 67.179 100.219 68.2514 100.781 69.091C101.343 69.9302 102.303 70.417 103.313 70.3677C106.661 70.2173 109.77 71.7783 111.632 74.5577C114.537 78.8954 113.372 84.7884 109.034 87.6943C104.696 90.5999 98.8033 89.4343 95.897 85.0962C95.6565 84.7369 95.4352 84.3505 95.2393 83.948C94.875 83.1973 94.2031 82.6413 93.3974 82.4231C92.5916 82.2053 91.7309 82.3465 91.0375 82.811L71.6441 95.8007C70.0434 92.1486 68.0498 88.6659 65.6895 85.4014L84.3849 72.8784Z" fill="#292929"/>
<path d="M-2.76244 111.875C-12.2598 111.875 -19.9863 119.602 -19.9863 129.099C-19.9863 138.596 -12.2598 146.323 -2.76244 146.323C6.7349 146.323 14.4615 138.596 14.4615 129.099C14.4615 119.602 6.7349 111.875 -2.76244 111.875ZM-2.76244 140.551C-9.0772 140.551 -14.2145 135.414 -14.2145 129.099C-14.2145 122.784 -9.0772 117.647 -2.76244 117.647C3.55232 117.647 8.68963 122.784 8.68963 129.099C8.68963 135.414 3.55232 140.551 -2.76244 140.551Z" fill="#292929"/>
<path d="M41.4192 146.323C50.9165 146.323 58.6431 138.596 58.6431 129.099C58.6431 119.602 50.9165 111.875 41.4192 111.875C31.9219 111.875 24.1953 119.602 24.1953 129.099C24.1953 138.596 31.9219 146.323 41.4192 146.323ZM41.4192 117.647C47.734 117.647 52.8713 122.784 52.8713 129.099C52.8713 135.414 47.734 140.551 41.4192 140.551C35.1044 140.551 29.9671 135.414 29.9671 129.099C29.9671 122.784 35.1044 117.647 41.4192 117.647Z" fill="#292929"/>
<path d="M19.5842 144.32C19.58 144.32 19.5757 144.32 19.5715 144.32C18.8066 144.32 18.0724 144.624 17.531 145.166L13.2568 149.44C12.1293 150.567 12.1293 152.394 13.2564 153.521C13.8201 154.085 14.5585 154.366 15.2973 154.366C16.0357 154.366 16.7745 154.085 17.3378 153.521L19.5534 151.306L21.7113 153.503C22.8291 154.64 24.6561 154.656 25.7924 153.539C26.9294 152.422 26.9456 150.595 25.8289 149.458L21.6305 145.184C21.0907 144.635 20.3542 144.324 19.5842 144.32Z" fill="#292929"/>
</g>
</svg>
