<svg width="541" height="237" viewBox="0 0 541 237" fill="none" xmlns="http://www.w3.org/2000/svg">
<mask id="mask0" mask-type="alpha" maskUnits="userSpaceOnUse" x="0" y="0" width="541" height="237">
<path d="M56 237C25.072 237 0 211.928 0 181L0 0L485 0C515.928 0 541 25.0721 541 56V181C541 211.928 515.928 237 485 237L56 237Z" fill="#212121"/>
</mask>
<g mask="url(#mask0)">
<path d="M44.323 216.389C42.776 215.658 40.9586 215.492 39.2082 216.066C37.4579 216.641 36.0927 217.852 35.2805 219.358C33.7335 218.627 31.9161 218.461 30.1657 219.035C28.4154 219.61 27.0502 220.821 26.238 222.328C24.691 221.596 22.8736 221.43 21.1232 222.005C17.497 223.195 15.5156 227.114 16.7063 230.74L19.6755 239.783C20.8662 243.409 24.785 245.391 28.4112 244.2C30.1616 243.625 31.5267 242.414 32.339 240.908C33.886 241.639 35.7034 241.805 37.4537 241.231C39.204 240.656 40.5692 239.445 41.3815 237.939C42.9285 238.67 44.7459 238.836 46.4962 238.262C48.2465 237.687 49.6117 236.476 50.424 234.969C51.971 235.701 53.7884 235.867 55.5387 235.292C59.1649 234.102 61.1464 230.183 59.9557 226.557L56.9865 217.514C55.7958 213.888 51.877 211.906 48.2507 213.097C46.5004 213.672 45.1352 214.883 44.323 216.389ZM40.5579 220.177C41.9177 219.73 43.3872 220.473 43.8338 221.833L44.6435 224.299L39.7113 225.919L38.9015 223.452C38.455 222.093 39.198 220.623 40.5579 220.177ZM31.5154 223.146C32.8752 222.699 34.3447 223.442 34.7913 224.802L35.601 227.268L30.6688 228.888L29.859 226.422C29.4125 225.062 30.1555 223.592 31.5154 223.146ZM22.4729 226.115C23.8327 225.668 25.3022 226.411 25.7488 227.771L26.5585 230.237L21.6263 231.857L20.8165 229.391C20.37 228.031 21.113 226.561 22.4729 226.115ZM27.0616 240.09C25.7017 240.536 24.2322 239.793 23.7857 238.433L22.9759 235.967L27.9082 234.348L28.7179 236.814C29.1645 238.174 28.4215 239.643 27.0616 240.09ZM36.1041 237.12C34.7442 237.567 33.2747 236.824 32.8282 235.464L32.0184 232.998L36.9507 231.378L37.7604 233.845C38.207 235.204 37.464 236.674 36.1041 237.12ZM45.1466 234.151C43.7867 234.598 42.3172 233.855 41.8707 232.495L41.0609 230.029L45.9932 228.409L46.8029 230.875C47.2495 232.235 46.5064 233.705 45.1466 234.151ZM54.1891 231.182C52.8292 231.629 51.3597 230.886 50.9132 229.526L50.1034 227.06L55.0357 225.44L55.8454 227.906C56.292 229.266 55.5489 230.736 54.1891 231.182ZM52.8763 218.864L53.686 221.33L48.7538 222.949L47.944 220.483C47.4975 219.123 48.2405 217.654 49.6003 217.207C50.9602 216.761 52.4297 217.504 52.8763 218.864Z" fill="#292929"/>
<path d="M3.78662 184.457C-3.23919 186.764 -7.07822 194.357 -4.77124 201.382C-2.46425 208.408 5.12849 212.247 12.1543 209.94C19.1801 207.633 23.0191 200.04 20.7122 193.015C18.4052 185.989 10.8124 182.15 3.78662 184.457ZM10.8047 205.83C6.04524 207.393 0.901787 204.792 -0.661013 200.033C-2.22381 195.273 0.376811 190.13 5.13625 188.567C9.89568 187.004 15.0391 189.605 16.6019 194.364C18.1647 199.124 15.5641 204.267 10.8047 205.83Z" fill="#292929"/>
<path d="M56.8811 181.14C54.5741 174.114 46.9814 170.275 39.9556 172.582C32.9298 174.889 29.0907 182.482 31.3977 189.507C33.7047 196.533 41.2974 200.372 48.3232 198.065C55.3491 195.758 59.1881 188.165 56.8811 181.14ZM46.9736 193.955C42.2142 195.518 37.0707 192.917 35.5079 188.158C33.9451 183.398 36.5458 178.255 41.3052 176.692C46.0646 175.129 51.2081 177.73 52.7709 182.489C54.3337 187.249 51.7331 192.392 46.9736 193.955Z" fill="#292929"/>
<path d="M27.9468 197.026C27.2125 197.267 26.6627 197.881 26.5045 198.638L24.7329 207.101C24.0935 210.157 26.0589 213.163 29.1142 213.802C30.5419 214.101 31.9988 213.842 33.2223 213.092C33.6634 213.055 34.0946 212.967 34.5087 212.831C35.437 212.526 36.2792 211.981 36.9519 211.229C39.0335 208.903 38.8343 205.317 36.5082 203.235L30.0642 197.469C29.4881 196.954 28.6811 196.785 27.9468 197.026ZM33.7277 208.344C33.455 208.649 33.0621 208.809 32.649 208.784C32.3732 208.767 32.0996 208.803 31.8417 208.888C31.5838 208.972 31.3418 209.105 31.1299 209.282C30.8121 209.548 30.4007 209.651 30.0006 209.568C29.2801 209.417 28.8167 208.708 28.9674 207.988L29.9712 203.191L33.6233 206.459C34.1717 206.95 34.2187 207.795 33.7277 208.344Z" fill="#292929"/>
<path d="M65.9715 138.764C63.538 136.587 60.0295 136.19 57.1587 137.536C55.078 135.119 51.7414 134.098 48.5819 135.136C45.4795 136.155 43.3809 138.994 43.1124 142.154C39.9777 142.747 37.4263 145.126 36.7451 148.382C36.7198 148.502 36.7033 148.623 36.684 148.743C28.6767 147.104 20.3934 147.579 12.5556 150.153C3.83696 153.016 -3.79183 158.297 -9.50644 165.428C-10.2535 166.36 -10.1037 167.721 -9.1715 168.468C-8.23923 169.215 -6.87788 169.065 -6.13099 168.133C-0.942738 161.66 5.98582 156.863 13.905 154.263C21.5175 151.763 29.5907 151.442 37.3239 153.319C37.9292 154.631 38.877 155.785 40.0878 156.628C39.034 159.639 39.8191 163.038 42.2973 165.256C44.7305 167.433 48.239 167.83 51.1101 166.484C53.1908 168.901 56.5273 169.922 59.6869 168.884C60.0997 168.749 60.4935 168.578 60.8689 168.382C63.9877 172.321 66.3695 176.756 67.9577 181.593L73.1497 197.405C65.1566 201.156 61.0226 210.394 63.8454 218.991L66.2523 226.321C68.1872 232.213 64.9673 238.581 59.0747 240.516L28.6591 250.504C22.7664 252.438 16.3983 249.219 14.4634 243.326L12.0566 235.996C9.23371 227.399 0.42794 222.41 -8.23273 224.128L-13.4247 208.315C-15.9466 200.635 -16.2525 192.45 -14.3093 184.646C-14.0208 183.487 -14.7266 182.313 -15.8858 182.024C-17.0448 181.736 -18.2186 182.441 -18.5075 183.601C-20.6476 192.197 -20.3113 201.21 -17.535 209.665L-11.7091 227.408C-11.3364 228.543 -10.1142 229.161 -8.97917 228.788C-6.31801 227.914 -3.57626 227.924 -1.07051 228.652C-3.07431 229.325 -4.99237 230.25 -6.76689 231.413C-10.3679 233.772 -13.3032 237.06 -15.2561 240.922C-15.7951 241.988 -15.3678 243.289 -14.3018 243.828C-8.95968 246.529 -2.91368 247.137 2.70751 245.769C-0.357462 251.575 -1.06439 258.512 1.07437 265.025C1.44706 266.16 2.66925 266.778 3.80429 266.405C10.2113 264.302 15.3743 259.77 18.2894 253.787C21.8148 255.518 25.9909 255.933 30.0086 254.614L60.4243 244.626C68.5833 241.947 73.0415 233.13 70.3624 224.971L67.9556 217.641C65.6486 210.615 69.4876 203.022 76.5134 200.715C77.6485 200.343 78.2664 199.121 77.8937 197.985L72.0679 180.243C70.2783 174.793 67.5704 169.806 64.014 165.39C64.6489 164.328 65.0498 163.123 65.1567 161.866C68.2912 161.273 70.8428 158.893 71.524 155.638C72.1932 152.442 70.7835 149.205 68.1809 147.392C69.2348 144.381 68.4498 140.982 65.9715 138.764ZM4.45644 231.825C6.01037 233.302 7.23214 235.171 7.94636 237.346L8.35746 238.598C2.89544 242.33 -4.07489 243.172 -10.2485 240.885C-6.9453 235.824 -1.62141 232.523 4.45644 231.825ZM4.59237 261.46C3.221 254.862 5.21585 248.011 9.86331 243.184L10.3532 244.676C11.222 247.322 12.7393 249.575 14.6675 251.326C12.6321 255.842 9.07249 259.415 4.59237 261.46ZM67.2898 154.752C66.9003 156.613 65.069 157.888 63.1199 157.653C62.418 157.568 61.719 157.833 61.2482 158.36C60.7772 158.887 60.5939 159.612 60.7569 160.3C61.2107 162.214 60.148 164.179 58.3372 164.774C56.5306 165.367 54.5112 164.418 53.7399 162.613C53.462 161.963 52.8838 161.49 52.1917 161.346C51.8154 161.267 51.4311 161.292 51.076 161.408C50.7782 161.506 50.501 161.669 50.2664 161.89C48.8362 163.24 46.6025 163.303 45.1819 162.032C43.7647 160.764 43.577 158.541 44.7542 156.97C45.1784 156.404 45.299 155.667 45.0778 154.996C44.8567 154.324 44.3211 153.803 43.6437 153.601C41.7589 153.036 40.5886 151.134 40.9789 149.268C41.3686 147.407 43.2002 146.132 45.1489 146.367C45.8507 146.451 46.5499 146.187 47.0206 145.66C47.4915 145.132 47.6749 144.408 47.5118 143.72C47.0581 141.806 48.1208 139.841 49.9313 139.246C51.738 138.653 53.7573 139.602 54.5289 141.407C54.8068 142.057 55.385 142.53 56.077 142.674C56.7694 142.818 57.4883 142.615 58.0024 142.13C59.4331 140.78 61.6668 140.717 63.0869 141.988C64.5039 143.256 64.6919 145.48 63.5146 147.05C63.0904 147.616 62.9699 148.353 63.191 149.025C63.4121 149.696 63.9477 150.217 64.6251 150.42C66.5098 150.984 67.6804 152.887 67.2898 154.752Z" fill="#292929"/>
<path d="M53.4595 149.954C52.919 150.132 52.4609 150.526 52.2042 151.033C51.9475 151.541 51.9017 152.144 52.0798 152.686C52.2573 153.227 52.6513 153.685 53.1591 153.941C53.6669 154.198 54.2687 154.242 54.8092 154.064C55.3497 153.887 55.8084 153.495 56.0652 152.987C56.3212 152.477 56.3677 151.877 56.1902 151.336C56.0127 150.796 55.6187 150.338 55.1102 150.079C54.6025 149.822 54 149.777 53.4595 149.954Z" fill="#292929"/>
<path d="M519.568 -57.8049C512.148 -57.9922 505.958 -52.1073 505.771 -44.6871L504.95 -12.1824L498.043 -12.3569C496.491 -12.396 495.202 -11.1695 495.163 -9.61804C495.123 -8.0662 496.35 -6.77638 497.901 -6.73736L505.3 -6.5504C498.833 -2.19136 494.423 4.40828 492.873 12.0608L492.343 14.6772L489.727 14.1474C488.406 13.8798 487.071 13.7056 485.735 13.6205C487.726 9.5051 488.821 5.00238 488.928 0.359714C489.08 -6.21512 487.233 -12.597 483.586 -18.0964C482.728 -19.3901 480.983 -19.7433 479.69 -18.8853C473.202 -14.5827 468.614 -8.14361 466.552 -0.876662C466.129 -1.17258 465.68 -1.44151 465.203 -1.67846C461.404 -3.56814 456.871 -2.85721 453.739 -0.180555C450.299 -2.4933 445.767 -2.6217 442.166 -0.233357C438.63 2.11196 436.978 6.39226 437.731 10.4443C434.007 12.2677 431.631 16.1275 431.899 20.4402C432.162 24.6751 435.043 28.2454 438.928 29.62C438.645 33.7554 440.8 37.7442 444.669 39.6686C445.078 39.8719 445.497 40.0394 445.92 40.1833C441.441 44.4442 440.516 51.4461 444.049 56.7727L457.133 76.5013C462.101 83.9924 472.238 86.045 479.729 81.0768L489.811 74.3905L503.429 77.1481C504.62 89.3911 507.684 101.319 512.553 112.633C512.987 113.64 513.967 114.304 515.064 114.331C515.652 114.346 516.217 114.177 516.688 113.864C517.095 113.594 517.433 113.218 517.657 112.762C522.441 103.031 525.858 92.7194 527.841 82.0721C530.732 82.4929 533.558 81.7884 535.847 80.2708C538.302 78.6427 540.137 76.0802 540.766 72.9716L542.624 63.8L572.434 44.0294C578.404 40.0697 580.04 31.9909 576.08 26.0204L562.996 6.29179C558.983 0.240744 551.598 -2.25917 544.959 -0.379348C543.334 -2.44094 541.462 -4.25679 539.39 -5.79489C539.701 -5.87335 539.992 -6.00174 540.252 -6.17433C540.991 -6.66399 541.487 -7.49436 541.511 -8.44722C541.55 -9.99905 540.324 -11.2889 538.772 -11.3279L531.866 -11.5024L532.687 -44.0071C532.874 -51.4275 526.989 -57.6171 519.568 -57.8049ZM497.295 18.5475L498.383 13.176C499.649 6.92097 503.276 1.53384 508.595 -1.99353C513.913 -5.52089 520.287 -6.76601 526.542 -5.49924C531.719 -4.45098 536.314 -1.76721 539.746 2.14998L462.362 53.4719C460.304 49.2304 459.552 44.5035 460.207 39.8044C462.736 40.2421 465.41 39.747 467.706 38.2239C471.243 35.8786 472.894 31.5981 472.142 27.5463C475.157 26.0695 477.288 23.2569 477.847 19.9499C481.347 19.0382 485.035 18.9327 488.612 19.6572L493.983 20.7448C495.504 21.0529 496.987 20.0692 497.295 18.5475ZM480.411 -12.4173C484.727 -4.03804 484.28 5.9237 479.127 13.9395C478.488 14.0433 477.853 14.1678 477.221 14.3137C476.087 11.5622 473.792 9.38186 470.956 8.37483C470.807 0.352197 474.307 -7.29407 480.411 -12.4173ZM437.509 20.0919C437.356 17.6259 439.212 15.3982 441.734 15.0203C442.643 14.8845 443.427 14.3126 443.836 13.4896C444.244 12.6665 444.224 11.696 443.783 10.89C442.554 8.64798 443.209 5.81978 445.273 4.45115C447.332 3.08547 450.189 3.57883 451.777 5.57423C452.35 6.29294 453.237 6.68679 454.154 6.62888C455.071 6.57097 455.901 6.06836 456.378 5.28332C457.706 3.09861 460.483 2.25141 462.7 3.35433C464.912 4.45481 465.913 7.17589 464.979 9.54895C464.643 10.4041 464.746 11.3694 465.254 12.1343C465.763 12.8992 466.613 13.3676 467.532 13.3881C470.087 13.4455 472.21 15.4265 472.363 17.8981C472.517 20.3643 470.66 22.592 468.138 22.9696C467.23 23.1058 466.445 23.6775 466.037 24.5003C465.629 25.3235 465.648 26.2939 466.09 27.0999C467.318 29.3417 466.663 32.1702 464.6 33.5388C462.54 34.9045 459.683 34.4111 458.095 32.4157C457.523 31.697 456.635 31.3032 455.718 31.3611C455.22 31.3925 454.747 31.5555 454.342 31.8239C454.003 32.049 453.712 32.3484 453.494 32.7066C452.166 34.8916 449.39 35.7383 447.172 34.6358C444.96 33.5353 443.959 30.8146 444.893 28.4412C445.229 27.5862 445.126 26.6211 444.618 25.8558C444.109 25.0906 443.259 24.6225 442.34 24.602C439.785 24.5444 437.663 22.5634 437.509 20.0919ZM450.802 43.4488L454.423 41.0474C454.048 46.3797 455.124 51.6813 457.561 56.4559C454.399 57.6936 450.685 56.6081 448.733 53.6659C446.487 50.2785 447.415 45.6953 450.802 43.4488ZM515.315 104.36C512.253 95.9485 510.205 87.2251 509.202 78.317L522.328 80.975C520.837 89.0091 518.489 96.843 515.315 104.36ZM569.326 39.3446L544.201 56.0082L548.339 35.574L561.178 27.0587C564.565 24.8121 569.149 25.7403 571.395 29.1273C573.642 32.5148 572.714 37.0981 569.326 39.3446ZM558.311 9.39886L565.486 20.218C562.938 20.1683 560.351 20.8619 558.071 22.3741L526.508 43.3069C525.214 44.1649 524.861 45.9091 525.719 47.2028C526.577 48.4965 528.321 48.8497 529.615 47.9917L541.713 39.9682L535.256 71.8559C534.612 75.0347 531.502 77.0975 528.324 76.4536L496.436 69.9966L508.534 61.9733C509.827 61.1153 510.18 59.3711 509.322 58.0774C508.464 56.7837 506.72 56.4306 505.427 57.2886L476.622 76.3922C471.714 79.6472 465.073 78.3024 461.818 73.3945L454.642 62.5753C457.19 62.625 459.777 61.9314 462.057 60.4193L543.507 6.40099C548.415 3.14595 555.056 4.49089 558.311 9.39886ZM527.067 -44.1492L526.246 -11.6445L510.569 -12.0406L511.39 -44.5452C511.499 -48.8671 515.105 -52.2943 519.426 -52.1855C523.748 -52.076 527.176 -48.4709 527.067 -44.1492Z" fill="#242424"/>
<path d="M456.491 21.3342C457.107 20.9257 457.544 20.2782 457.692 19.5497C457.839 18.8251 457.689 18.0546 457.28 17.4385C456.871 16.8225 456.22 16.3844 455.495 16.2377C454.771 16.091 454 16.2411 453.384 16.6497C452.766 17.0598 452.328 17.7112 452.183 18.4343C452.034 19.1604 452.187 19.9294 452.595 20.5454C453.006 21.1638 453.653 21.6011 454.38 21.7462C455.106 21.8953 455.873 21.7444 456.491 21.3342Z" fill="#242424"/>
<path d="M515.967 50.2981C515.351 50.7067 514.913 51.3581 514.766 52.0827C514.62 52.8073 514.77 53.5778 515.178 54.1938C515.587 54.8099 516.238 55.248 516.963 55.3947C517.688 55.5414 518.458 55.3912 519.074 54.9827C519.69 54.5741 520.128 53.9227 520.275 53.1981C520.422 52.4735 520.272 51.703 519.863 51.087C519.454 50.471 518.803 50.0329 518.078 49.8861C517.354 49.7394 516.583 49.8896 515.967 50.2981Z" fill="#242424"/>
</g>
<path d="M344 164.75C344 160.848 341.415 157.573 337.88 156.448C338.57 155.195 339 153.78 339 152.25C339 148.348 336.415 145.073 332.88 143.948C333.57 142.695 334 141.28 334 139.75C334 134.925 330.075 131 325.25 131H307.75C307.323 131 306.912 131.067 306.5 131.127V131H294C286.217 131 279.347 134.975 275.305 141H189V146H272.812C271.978 148.35 271.5 150.868 271.5 153.5H276.5C276.5 143.85 284.35 136 294 136H299.878C299.333 137.14 299 138.403 299 139.75C299 142.2 300.017 144.41 301.645 146C300.017 147.59 299 149.8 299 152.25C299 154.7 300.017 156.91 301.645 158.5C300.017 160.09 299 162.3 299 164.75C299 167.2 300.017 169.41 301.645 171C300.017 172.59 299 174.8 299 177.25C299 177.673 299.04 178.088 299.1 178.5H298.823C297.605 170.03 290.302 163.5 281.5 163.5V168.5C288.393 168.5 294 174.108 294 181C294 182.38 295.12 183.5 296.5 183.5H311.5C312.88 183.5 314 182.38 314 181V172.25C314 170.183 315.683 168.5 317.75 168.5C319.818 168.5 321.5 170.183 321.5 172.25V183.5C321.5 187.635 318.135 191 314 191H294C284.35 191 276.5 183.15 276.5 173.5H271.5C271.5 176.133 271.978 178.65 272.812 181H189V186H275.305C279.347 192.025 286.217 196 294 196H314C320.035 196 325.085 191.698 326.247 186H330.25C335.075 186 339 182.075 339 177.25C339 175.72 338.57 174.305 337.88 173.053C341.415 171.928 344 168.653 344 164.75ZM304 139.75C304 137.683 305.683 136 307.75 136H325.25C327.318 136 329 137.683 329 139.75C329 141.818 327.318 143.5 325.25 143.5H307.75C305.683 143.5 304 141.818 304 139.75ZM304 152.25C304 150.183 305.683 148.5 307.75 148.5H325.25H330.25C332.318 148.5 334 150.183 334 152.25C334 154.318 332.318 156 330.25 156H307.75C305.683 156 304 154.318 304 152.25ZM304.223 178.5C304.083 178.103 304 177.685 304 177.25C304 175.183 305.683 173.5 307.75 173.5H309V178.5H304.223ZM330.25 181H326.5V173.5H330.25C332.318 173.5 334 175.183 334 177.25C334 179.318 332.318 181 330.25 181ZM335.25 168.5H330.25H325.622C324.212 165.555 321.227 163.5 317.75 163.5C314.272 163.5 311.288 165.555 309.878 168.5H307.75C305.683 168.5 304 166.818 304 164.75C304 162.683 305.683 161 307.75 161H330.25H335.25C337.318 161 339 162.683 339 164.75C339 166.818 337.318 168.5 335.25 168.5Z" fill="#373737"/>
<path d="M216.499 131.001C216.812 131.001 217.127 130.943 217.427 130.823L223.259 128.491C227.999 126.593 232.234 123.801 235.847 120.188L241.499 114.536L242.232 115.268C242.719 115.756 243.359 116.001 243.999 116.001C244.639 116.001 245.279 115.756 245.767 115.268L253.267 107.768L260.767 100.268C261.744 99.2906 261.744 97.7106 260.767 96.7331L260.034 96.0006L263.999 92.0356L274.732 102.768C275.709 103.746 277.289 103.746 278.267 102.768L281.499 99.5356L297.232 115.268C297.719 115.756 298.359 116.001 298.999 116.001C299.639 116.001 300.279 115.756 300.767 115.268L305.767 110.268L323.267 92.7681L330.767 85.2681C331.744 84.2906 331.744 82.7106 330.767 81.7331L290.767 41.7331C289.789 40.7556 288.209 40.7556 287.232 41.7331L279.732 49.2331C278.754 50.2106 278.754 51.7906 279.732 52.7681L284.214 57.2506L277.749 63.7156L275.767 61.7331C274.789 60.7556 273.209 60.7556 272.232 61.7331L266.499 67.4656L265.767 66.7331C264.974 65.9406 263.797 65.8256 262.854 66.3206L257.534 61.0006L258.267 60.2681C258.737 59.8006 258.999 59.1631 258.999 58.5006V53.5006C258.999 52.8381 258.737 52.2006 258.267 51.7331L255.767 49.2331C255.299 48.7631 254.662 48.5006 253.999 48.5006H248.999C248.337 48.5006 247.699 48.7631 247.232 49.2331L234.732 61.7331C234.262 62.2006 233.999 62.8381 233.999 63.5006V68.5006C233.999 69.1631 234.262 69.8006 234.732 70.2681L237.232 72.7681C237.699 73.2381 238.337 73.5006 238.999 73.5006H243.999C244.662 73.5006 245.299 73.2381 245.767 72.7681L246.499 72.0356L251.819 77.3556C251.324 78.2981 251.439 79.4756 252.232 80.2681L252.964 81.0006L248.999 84.9656L248.267 84.2331C247.289 83.2556 245.709 83.2556 244.732 84.2331L237.232 91.7331L229.732 99.2331C228.754 100.211 228.754 101.791 229.732 102.768L230.464 103.501L226.789 107.176C226.054 107.911 225.852 109.028 226.279 109.976C226.427 110.296 226.499 110.641 226.499 111.001C226.499 112.378 225.377 113.501 223.999 113.501C223.749 113.501 223.504 113.463 223.277 113.393C222.234 113.063 221.097 113.456 220.472 114.358C218.882 116.658 217.549 119.146 216.509 121.743L214.177 127.573C213.807 128.501 214.024 129.561 214.732 130.268C215.209 130.746 215.849 131.001 216.499 131.001ZM317.964 91.0006L303.999 104.966L285.034 86.0006L298.999 72.0356L317.964 91.0006ZM288.999 47.0356L325.464 83.5006L321.499 87.4656L285.034 51.0006L288.999 47.0356ZM287.749 60.7856L295.464 68.5006L281.499 82.4656L277.534 78.5006L283.267 72.7681C284.244 71.7906 284.244 70.2106 283.267 69.2331L281.284 67.2506L287.749 60.7856ZM273.999 67.0356L277.964 71.0006L273.999 74.9656L270.034 71.0006L273.999 67.0356ZM300.464 108.501L298.999 109.966L283.267 94.2331C282.779 93.7456 282.139 93.5006 281.499 93.5006C280.859 93.5006 280.219 93.7456 279.732 94.2331L276.499 97.4656L257.534 78.5006L263.999 72.0356L300.464 108.501ZM242.964 68.5006H240.034L238.999 67.4656V64.5356L250.034 53.5006H252.964L253.999 54.5356V57.4656L242.964 68.5006ZM253.999 64.5356L259.214 69.7506L255.249 73.7156L250.034 68.5006L253.999 64.5356ZM256.499 84.5356L260.464 88.5006L256.499 92.4656L252.534 88.5006L256.499 84.5356ZM246.499 89.5356L255.464 98.5006L251.499 102.466L242.534 93.5006L246.499 89.5356ZM238.999 97.0356L247.964 106.001L243.999 109.966L235.034 101.001L238.999 97.0356ZM221.152 123.601C221.862 121.828 222.729 120.116 223.737 118.496C227.947 118.658 231.499 115.223 231.499 111.001C231.499 110.543 231.459 110.096 231.379 109.656L233.999 107.036L237.964 111.001L232.312 116.653C229.182 119.783 225.512 122.203 221.402 123.846L220.987 124.011L221.152 123.601Z" fill="#373737"/>
<path d="M237.883 175.743C238.233 175.918 238.618 176.006 239.001 176.006C239.383 176.006 239.768 175.918 240.118 175.743L260.118 165.743C260.966 165.318 261.501 164.453 261.501 163.506C261.501 162.558 260.966 161.693 260.118 161.268L240.118 151.268C239.416 150.916 238.586 150.916 237.881 151.268L217.881 161.268C217.036 161.693 216.501 162.558 216.501 163.506C216.501 164.453 217.036 165.318 217.883 165.743L237.883 175.743ZM239.001 156.301L253.411 163.506L239.001 170.711L224.591 163.506L239.001 156.301Z" fill="#373737"/>
<path d="M206.5 161H211.5V166H206.5V161Z" fill="#373737"/>
</svg>
