<svg width="22" height="22" viewBox="0 0 22 22" fill="none" xmlns="http://www.w3.org/2000/svg">
<g clip-path="url(#clip0)">
<path d="M7.13281 14.2228H18.7775C19.0659 14.2228 19.3188 14.0321 19.3969 13.7552L21.9752 4.7316C22.0305 4.53706 21.9926 4.32809 21.8706 4.16646C21.7484 4.00533 21.5584 3.91016 21.3556 3.91016H5.64485L5.18411 1.83691C5.11865 1.54167 4.85681 1.33203 4.55469 1.33203H0.644531C0.288361 1.33203 0 1.62039 0 1.97656C0 2.3329 0.288361 2.62109 0.644531 2.62109H4.03738L6.36491 13.0947C5.6801 13.3925 5.19922 14.0741 5.19922 14.8674C5.19922 15.9335 6.06665 16.8009 7.13281 16.8009H18.7775C19.1339 16.8009 19.422 16.5128 19.422 16.1564C19.422 15.8002 19.1339 15.5119 18.7775 15.5119H7.13281C6.77782 15.5119 6.48828 15.223 6.48828 14.8674C6.48828 14.5117 6.77782 14.2228 7.13281 14.2228Z" fill="white"/>
<path d="M6.48828 18.7344C6.48828 19.8007 7.35571 20.668 8.42204 20.668C9.4882 20.668 10.3556 19.8007 10.3556 18.7344C10.3556 17.6682 9.4882 16.8008 8.42204 16.8008C7.35571 16.8008 6.48828 17.6682 6.48828 18.7344Z" fill="white"/>
<path d="M15.5547 18.7344C15.5547 19.8007 16.4221 20.668 17.4883 20.668C18.5546 20.668 19.4219 19.8007 19.4219 18.7344C19.4219 17.6682 18.5546 16.8008 17.4883 16.8008C16.4221 16.8008 15.5547 17.6682 15.5547 18.7344Z" fill="white"/>
</g>
<defs>
<clipPath id="clip0">
<rect width="22" height="22" fill="white"/>
</clipPath>
</defs>
</svg>
