<svg width="14" height="14" viewBox="0 0 14 14" fill="none" xmlns="http://www.w3.org/2000/svg">
<path d="M8.04208 6.99999L13.7842 1.25786C14.0719 0.9701 14.0719 0.503562 13.7842 0.215824C13.4964 -0.0719413 13.0299 -0.0719413 12.7421 0.215824L6.99999 5.95795L1.25786 0.215824C0.9701 -0.0719413 0.503562 -0.0719413 0.215824 0.215824C-0.0719139 0.503589 -0.0719413 0.970127 0.215824 1.25786L5.95795 6.99999L0.215824 12.7421C-0.0719413 13.0299 -0.0719413 13.4964 0.215824 13.7841C0.503589 14.0719 0.970127 14.0719 1.25786 13.7841L6.99999 8.04203L12.7421 13.7841C13.0298 14.0719 13.4964 14.0719 13.7841 13.7841C14.0719 13.4964 14.0719 13.0298 13.7841 12.7421L8.04208 6.99999Z" fill="#979797"/>
</svg>
