<svg width="46" height="49" viewBox="0 0 46 49" fill="none" xmlns="http://www.w3.org/2000/svg">
<path fill-rule="evenodd" clip-rule="evenodd" d="M23.4094 -9C22.8305 -9 22.3612 -8.53071 22.3612 -7.95181C22.3612 -7.37291 22.8305 -6.90361 23.4094 -6.90361C23.9883 -6.90361 24.4576 -7.37291 24.4576 -7.95181C24.4576 -8.53071 23.9883 -9 23.4094 -9ZM1.04819 -8.99993C0.469292 -8.99993 0 -8.53064 0 -7.95174C0 -7.37284 0.469292 -6.90355 1.04819 -6.90355C1.62709 -6.90355 2.09639 -7.37284 2.09639 -7.95174C2.09639 -8.53064 1.62709 -8.99993 1.04819 -8.99993ZM44.723 -7.95181C44.723 -8.53071 45.1923 -9 45.7712 -9C46.3501 -9 46.8194 -8.53071 46.8194 -7.95181C46.8194 -7.37291 46.3501 -6.90361 45.7712 -6.90361C45.1923 -6.90361 44.723 -7.37291 44.723 -7.95181ZM12.2288 -9C11.6499 -9 11.1806 -8.53071 11.1806 -7.95181C11.1806 -7.37291 11.6499 -6.90361 12.2288 -6.90361C12.8077 -6.90361 13.277 -7.37291 13.277 -7.95181C13.277 -8.53071 12.8077 -9 12.2288 -9ZM33.5424 -7.95181C33.5424 -8.53071 34.0117 -9 34.5906 -9C35.1695 -9 35.6388 -8.53071 35.6388 -7.95181C35.6388 -7.37291 35.1695 -6.90361 34.5906 -6.90361C34.0117 -6.90361 33.5424 -7.37291 33.5424 -7.95181ZM56.9518 -9C56.3729 -9 55.9036 -8.53071 55.9036 -7.95181C55.9036 -7.37291 56.3729 -6.90361 56.9518 -6.90361C57.5307 -6.90361 58 -7.37291 58 -7.95181C58 -8.53071 57.5307 -9 56.9518 -9ZM0 14.4096C0 13.8307 0.469292 13.3614 1.04819 13.3614C1.62709 13.3614 2.09639 13.8307 2.09639 14.4096C2.09639 14.9885 1.62709 15.4578 1.04819 15.4578C0.469292 15.4578 0 14.9885 0 14.4096ZM23.4094 13.3614C22.8305 13.3614 22.3612 13.8307 22.3612 14.4096C22.3612 14.9885 22.8305 15.4578 23.4094 15.4578C23.9883 15.4578 24.4576 14.9885 24.4576 14.4096C24.4576 13.8307 23.9883 13.3614 23.4094 13.3614ZM44.723 14.4096C44.723 13.8307 45.1923 13.3614 45.7712 13.3614C46.3501 13.3614 46.8194 13.8307 46.8194 14.4096C46.8194 14.9885 46.3501 15.4578 45.7712 15.4578C45.1923 15.4578 44.723 14.9885 44.723 14.4096ZM12.2288 13.3614C11.6499 13.3614 11.1806 13.8307 11.1806 14.4096C11.1806 14.9885 11.6499 15.4578 12.2288 15.4578C12.8077 15.4578 13.277 14.9885 13.277 14.4096C13.277 13.8307 12.8077 13.3614 12.2288 13.3614ZM33.5424 14.4096C33.5424 13.8307 34.0117 13.3614 34.5906 13.3614C35.1695 13.3614 35.6388 13.8307 35.6388 14.4096C35.6388 14.9885 35.1695 15.4578 34.5906 15.4578C34.0117 15.4578 33.5424 14.9885 33.5424 14.4096ZM56.9518 13.3614C56.3729 13.3614 55.9036 13.8307 55.9036 14.4096C55.9036 14.9885 56.3729 15.4578 56.9518 15.4578C57.5307 15.4578 58 14.9885 58 14.4096C58 13.8307 57.5307 13.3614 56.9518 13.3614ZM0 36.7709C0 36.192 0.469292 35.7228 1.04819 35.7228C1.62709 35.7228 2.09639 36.192 2.09639 36.7709C2.09639 37.3498 1.62709 37.8191 1.04819 37.8191C0.469292 37.8191 0 37.3498 0 36.7709ZM23.4094 35.7228C22.8305 35.7228 22.3612 36.192 22.3612 36.7709C22.3612 37.3498 22.8305 37.8191 23.4094 37.8191C23.9883 37.8191 24.4576 37.3498 24.4576 36.7709C24.4576 36.192 23.9883 35.7228 23.4094 35.7228ZM44.723 36.7709C44.723 36.192 45.1923 35.7228 45.7712 35.7228C46.3501 35.7228 46.8194 36.192 46.8194 36.7709C46.8194 37.3498 46.3501 37.8191 45.7712 37.8191C45.1923 37.8191 44.723 37.3498 44.723 36.7709ZM12.2288 35.7228C11.6499 35.7228 11.1806 36.192 11.1806 36.7709C11.1806 37.3498 11.6499 37.8191 12.2288 37.8191C12.8077 37.8191 13.277 37.3498 13.277 36.7709C13.277 36.192 12.8077 35.7228 12.2288 35.7228ZM33.5424 36.7709C33.5424 36.192 34.0117 35.7228 34.5906 35.7228C35.1695 35.7228 35.6388 36.192 35.6388 36.7709C35.6388 37.3498 35.1695 37.8191 34.5906 37.8191C34.0117 37.8191 33.5424 37.3498 33.5424 36.7709ZM56.9518 35.7228C56.3729 35.7228 55.9036 36.192 55.9036 36.7709C55.9036 37.3498 56.3729 37.8191 56.9518 37.8191C57.5307 37.8191 58 37.3498 58 36.7709C58 36.192 57.5307 35.7228 56.9518 35.7228ZM0 3.22901C0 2.65011 0.469292 2.18082 1.04819 2.18082C1.62709 2.18082 2.09639 2.65011 2.09639 3.22901C2.09639 3.80791 1.62709 4.27721 1.04819 4.27721C0.469292 4.27721 0 3.80791 0 3.22901ZM23.4094 2.18082C22.8305 2.18082 22.3612 2.65011 22.3612 3.22901C22.3612 3.80791 22.8305 4.27721 23.4094 4.27721C23.9883 4.27721 24.4576 3.80791 24.4576 3.22901C24.4576 2.65011 23.9883 2.18082 23.4094 2.18082ZM44.723 3.22901C44.723 2.65011 45.1923 2.18082 45.7712 2.18082C46.3501 2.18082 46.8194 2.65011 46.8194 3.22901C46.8194 3.80791 46.3501 4.27721 45.7712 4.27721C45.1923 4.27721 44.723 3.80791 44.723 3.22901ZM12.2288 2.18082C11.6499 2.18082 11.1806 2.65011 11.1806 3.22901C11.1806 3.80791 11.6499 4.27721 12.2288 4.27721C12.8077 4.27721 13.277 3.80791 13.277 3.22901C13.277 2.65011 12.8077 2.18082 12.2288 2.18082ZM33.5424 3.22901C33.5424 2.65011 34.0117 2.18082 34.5906 2.18082C35.1695 2.18082 35.6388 2.65011 35.6388 3.22901C35.6388 3.80791 35.1695 4.27721 34.5906 4.27721C34.0117 4.27721 33.5424 3.80791 33.5424 3.22901ZM56.9518 2.18082C56.3729 2.18082 55.9036 2.65011 55.9036 3.22901C55.9036 3.80791 56.3729 4.27721 56.9518 4.27721C57.5307 4.27721 58 3.80791 58 3.22901C58 2.65011 57.5307 2.18082 56.9518 2.18082ZM0 25.5904C0 25.0115 0.469292 24.5422 1.04819 24.5422C1.62709 24.5422 2.09639 25.0115 2.09639 25.5904C2.09639 26.1693 1.62709 26.6386 1.04819 26.6386C0.469292 26.6386 0 26.1693 0 25.5904ZM23.4094 24.5422C22.8305 24.5422 22.3612 25.0115 22.3612 25.5904C22.3612 26.1693 22.8305 26.6386 23.4094 26.6386C23.9883 26.6386 24.4576 26.1693 24.4576 25.5904C24.4576 25.0115 23.9883 24.5422 23.4094 24.5422ZM44.723 25.5904C44.723 25.0115 45.1923 24.5422 45.7712 24.5422C46.3501 24.5422 46.8194 25.0115 46.8194 25.5904C46.8194 26.1693 46.3501 26.6386 45.7712 26.6386C45.1923 26.6386 44.723 26.1693 44.723 25.5904ZM12.2288 24.5422C11.6499 24.5422 11.1806 25.0115 11.1806 25.5904C11.1806 26.1693 11.6499 26.6386 12.2288 26.6386C12.8077 26.6386 13.277 26.1693 13.277 25.5904C13.277 25.0115 12.8077 24.5422 12.2288 24.5422ZM33.5424 25.5904C33.5424 25.0115 34.0117 24.5422 34.5906 24.5422C35.1695 24.5422 35.6388 25.0115 35.6388 25.5904C35.6388 26.1693 35.1695 26.6386 34.5906 26.6386C34.0117 26.6386 33.5424 26.1693 33.5424 25.5904ZM56.9518 24.5422C56.3729 24.5422 55.9036 25.0115 55.9036 25.5904C55.9036 26.1693 56.3729 26.6386 56.9518 26.6386C57.5307 26.6386 58 26.1693 58 25.5904C58 25.0115 57.5307 24.5422 56.9518 24.5422ZM0 47.9518C0 47.3729 0.469292 46.9036 1.04819 46.9036C1.62709 46.9036 2.09639 47.3729 2.09639 47.9518C2.09639 48.5307 1.62709 49 1.04819 49C0.469292 49 0 48.5307 0 47.9518ZM23.4094 46.9036C22.8305 46.9036 22.3612 47.3729 22.3612 47.9518C22.3612 48.5307 22.8305 49 23.4094 49C23.9883 49 24.4576 48.5307 24.4576 47.9518C24.4576 47.3729 23.9883 46.9036 23.4094 46.9036ZM44.723 47.9518C44.723 47.3729 45.1923 46.9036 45.7712 46.9036C46.3501 46.9036 46.8194 47.3729 46.8194 47.9518C46.8194 48.5307 46.3501 49 45.7712 49C45.1923 49 44.723 48.5307 44.723 47.9518ZM12.2288 46.9036C11.6499 46.9036 11.1806 47.3729 11.1806 47.9518C11.1806 48.5307 11.6499 49 12.2288 49C12.8077 49 13.277 48.5307 13.277 47.9518C13.277 47.3729 12.8077 46.9036 12.2288 46.9036ZM33.5424 47.9518C33.5424 47.3729 34.0117 46.9036 34.5906 46.9036C35.1695 46.9036 35.6388 47.3729 35.6388 47.9518C35.6388 48.5307 35.1695 49 34.5906 49C34.0117 49 33.5424 48.5307 33.5424 47.9518ZM56.9518 46.9036C56.3729 46.9036 55.9036 47.3729 55.9036 47.9518C55.9036 48.5307 56.3729 49 56.9518 49C57.5307 49 58 48.5307 58 47.9518C58 47.3729 57.5307 46.9036 56.9518 46.9036Z" fill="url(#paint0_linear)"/>
<defs>
<linearGradient id="paint0_linear" x1="1.98215e-07" y1="19.5915" x2="58" y2="19.5915" gradientUnits="userSpaceOnUse">
<stop stop-color="#AE760B"/>
<stop offset="1" stop-color="#C9A034"/>
</linearGradient>
</defs>
</svg>
